<?xml version="1.0" standalone="no"?><!-- Generator: Gravit.io --><svg xmlns="http://www.w3.org/2000/svg" xmlns:xlink="http://www.w3.org/1999/xlink" style="isolation:isolate" viewBox="0 0 1100 800" width="1100" height="800"><defs><clipPath id="_clipPath_JBQRZCT1phdI4LKyyFsvTvE7kSRCBoUr"><rect width="1100" height="800"/></clipPath></defs><g clip-path="url(#_clipPath_JBQRZCT1phdI4LKyyFsvTvE7kSRCBoUr)"><g opacity="0.5"><path d=" M 503.963 626.118 C 475.771 626.202 447.578 626.88 419.436 630.01 C 408.824 631.19 398.436 633.786 387.8 634.833 C 366.557 636.925 345.693 640.827 324.374 642.627 C 307.207 644.076 289.967 644.93 272.849 646.769 C 256.8 648.494 239.032 648.097 223.107 645.248 C 211.317 643.139 199.473 641.952 187.881 638.565 C 174.914 634.776 160.827 632.068 147.316 632.165 C 128.05 632.305 109.288 632.32 90.851 639.011 C 84.379 641.358 76.455 645.219 71.54 650.147 C 60.29 661.429 58.767 689.579 70.001 701.28 C 88.921 720.973 129.305 728.7 155.827 729.065 C 184.89 729.465 213.123 727.307 242.229 726.039 C 269.274 724.86 296.252 723.182 323.341 723.242 C 378.67 723.362 434.005 723.242 489.234 719.546 C 541.122 716.073 593.141 717.265 645.143 717.265 C 698.469 717.265 751.434 717.684 804.376 724.772 C 827.443 727.86 850.943 728.941 874.126 731.104 C 894.888 733.042 914.84 731.066 935.52 729.275 C 952.884 727.772 970.135 723.311 985.911 715.773 C 998.398 709.806 1020.66 691.265 1024.49 677.021 C 1035.225 637.087 873.189 638.047 848.31 638.137 C 820.479 638.237 792.426 639.152 764.617 638.091 C 752.919 637.644 741.393 635.358 729.976 632.853 C 718.604 630.357 707.146 630.992 695.614 629.943 C 647.522 625.57 599.323 626.209 551.078 626.209 C 535.379 626.209 519.671 626.071 503.963 626.118 Z " fill="rgb(246,246,246)"/></g><path d=" M 139.543 465.578 L 136.038 546.896 L 146.315 685.165 L 161.694 686.258 L 180.379 560.677 L 206.228 454.411 L 139.543 465.578 Z " fill="rgb(0,44,81)"/><path d=" M 161.145 692.736 L 143.922 699.87 L 136.199 690.964 L 145.105 683.239 L 161.736 684.421 L 161.145 692.736 Z " fill="rgb(0,44,81)"/><path d=" M 248.41 436.803 L 251.785 498.27 L 241.771 681.035 L 226.372 681.805 L 203.294 561.935 L 182.938 430.482 L 248.41 436.803 Z " fill="rgb(0,44,81)"/><path d=" M 226.785 688.293 L 243.853 695.787 L 251.763 687.045 L 243.021 679.135 L 226.369 679.968 L 226.785 688.293 Z " fill="rgb(0,44,81)"/><clipPath id="_clipPath_6gXPoLqntdtOQOKXq1ahowdInLBX964g"><path d=" M 0 0 L 1100 0 L 1100 800 L 0 800 L 0 0 Z " fill="rgb(255,255,255)"/></clipPath><g clip-path="url(#_clipPath_6gXPoLqntdtOQOKXq1ahowdInLBX964g)"><path d=" M 135.514 260.866 L 182.033 247.769 C 182.033 247.769 208.866 246.122 237.347 305.687 C 253.194 338.826 265.512 393.18 273.323 434.886 C 273.214 441.042 271.139 468.279 242.901 468.499 C 194.408 468.878 167.994 465.518 148.083 472.805 C 131.217 479.577 128.615 455.218 127.424 436.493 L 124.764 378.385 L 135.514 260.866 Z " fill="rgb(255,255,255)"/><path d=" M 134.678 200.344 C 146.174 195.689 158.065 191.25 170.42 191.593 C 173.127 191.668 176.091 192.103 177.894 194.123 C 178.593 194.905 179.054 195.866 179.492 196.819 C 184.408 207.522 191.049 223.497 185.416 235.079 C 184.342 237.287 182.717 239.171 180.9 240.785 C 178.471 242.942 175.66 244.606 172.653 245.746 C 173.768 248.426 175.126 251.004 176.706 253.437 C 174.671 258.022 162.002 260.676 158.975 257.123 C 158.264 253.726 157.553 250.329 156.842 246.931 C 155.183 246.567 153.554 246.059 151.989 245.37 C 145.931 242.703 141.418 237.864 138.3 232.123 C 134.905 225.871 130.642 220.105 127.422 213.693 C 126.248 211.357 125.176 208.646 126.095 206.198 C 127.074 203.594 129.915 202.282 132.492 201.232 C 133.22 200.936 133.948 200.639 134.678 200.344 Z " fill="rgb(189,103,82)"/><path d=" M 175.51 200.025 C 168.966 197.229 159.834 197.094 154.352 198.436 C 137.779 202.492 133.718 215.855 135.435 231.434 C 129.818 226.341 119.892 220.421 118.088 212.949 C 116.612 206.834 116.039 198.251 118.6 192.32 C 120.998 186.771 128.827 182.62 133.269 178.887 C 137.456 175.369 141.644 171.85 145.831 168.332 C 146.702 167.6 147.598 166.853 148.671 166.474 C 149.939 166.026 151.327 166.135 152.668 166.249 C 164.138 167.229 175.609 168.209 187.079 169.188 C 189.283 169.376 191.823 169.766 192.946 171.671 C 193.629 172.831 193.585 174.262 193.521 175.606 C 193.239 181.522 191.831 187.758 192.217 193.638 C 192.114 197.109 193.026 214.657 186.744 213.678 C 184.515 211.119 183.658 207.647 181.781 204.82 C 180.394 202.732 178.165 201.159 175.51 200.025 Z " fill="rgb(0,44,81)"/><path d=" M 182.032 247.769 L 200.445 250.133 L 275.742 306.304 L 283.287 327.738 L 261.261 383.394 L 249.873 366.289 L 256.499 326.792 L 233.494 315.807 L 195.644 258.778 L 182.032 247.769 Z " fill="rgb(255,255,255)"/><path d=" M 425.868 447.46 L 252.786 462.657 L 232.66 233.697 L 405.742 218.5 L 425.868 447.46 Z " fill="rgb(0,83,103)"/><path d=" M 416.274 438.39 L 260.65 452.054 L 242.03 240.223 L 397.653 226.558 L 416.274 438.39 Z " fill="rgb(250,250,250)"/><path d=" M 326.999 212.74 L 309.192 214.304 C 307.371 214.463 305.753 213.118 305.594 211.313 C 305.435 209.509 306.795 207.902 308.615 207.742 L 326.422 206.179 C 328.242 206.019 329.862 207.365 330.02 209.169 C 330.179 210.973 328.819 212.58 326.999 212.74 Z  M 338.012 211.496 L 336.963 211.588 L 336.901 210.887 C 336.321 204.284 329.648 199.476 321.997 200.147 L 311.92 201.032 C 304.269 201.704 298.537 207.602 299.118 214.205 L 299.179 214.905 L 298.131 214.998 C 290.48 215.67 284.748 221.567 285.328 228.17 L 286.502 241.528 L 354.09 235.593 L 352.916 222.236 C 352.336 215.632 345.663 210.824 338.012 211.496 Z " fill="rgb(234,243,241)"/><g opacity="0.470001"><path d=" M 291.782 328.302 L 271.313 330.099 C 270.719 323.335 270.124 316.572 269.53 309.808 C 276.352 309.21 283.175 308.61 289.998 308.011 C 290.593 314.775 291.187 321.538 291.782 328.302 Z  M 290.981 305.548 C 283.365 306.216 275.749 306.885 268.132 307.554 C 267.489 307.61 266.99 308.199 267.046 308.838 C 267.709 316.388 268.373 323.938 269.037 331.487 C 269.093 332.125 269.686 332.619 270.331 332.562 C 277.947 331.894 285.563 331.225 293.179 330.556 C 293.528 330.526 293.783 330.376 293.956 330.17 C 293.969 330.157 293.981 330.143 293.993 330.129 C 294 330.12 294.007 330.113 294.013 330.104 C 294.19 329.898 294.296 329.622 294.265 329.272 C 293.602 321.722 292.938 314.173 292.274 306.623 C 292.218 305.985 291.626 305.491 290.981 305.548 Z " fill="rgb(131,145,149)"/></g><g opacity="0.470001"><path d=" M 295.109 370.349 C 288.286 370.948 281.464 371.547 274.641 372.146 C 274.046 365.383 273.452 358.62 272.857 351.856 L 293.326 350.059 C 293.92 356.823 294.515 363.586 295.109 370.349 Z  M 294.308 347.595 C 286.692 348.264 279.076 348.933 271.46 349.602 C 270.817 349.658 270.317 350.246 270.373 350.885 C 271.037 358.435 271.701 365.985 272.365 373.535 C 272.421 374.173 273.013 374.667 273.658 374.61 C 281.274 373.941 288.891 373.273 296.507 372.604 C 296.856 372.573 297.11 372.424 297.284 372.218 C 297.297 372.205 297.308 372.19 297.321 372.177 C 297.327 372.168 297.335 372.16 297.341 372.152 C 297.518 371.946 297.624 371.67 297.593 371.32 C 296.93 363.77 296.266 356.22 295.602 348.67 C 295.546 348.032 294.953 347.538 294.308 347.595 Z " fill="rgb(131,145,149)"/></g><g opacity="0.470001"><path d=" M 298.79 412.227 C 291.968 412.826 285.145 413.425 278.322 414.024 C 277.727 407.261 277.133 400.497 276.539 393.734 C 283.361 393.135 290.184 392.536 297.007 391.937 C 297.602 398.701 298.196 405.464 298.79 412.227 Z  M 297.989 389.473 C 290.374 390.142 282.757 390.811 275.141 391.48 C 274.498 391.536 273.998 392.124 274.054 392.763 C 274.719 400.313 275.382 407.863 276.046 415.413 C 276.102 416.05 276.695 416.545 277.34 416.488 C 284.955 415.819 292.572 415.15 300.188 414.482 C 300.537 414.451 300.792 414.302 300.965 414.096 C 300.978 414.082 300.99 414.068 301.002 414.055 C 301.009 414.046 301.016 414.038 301.022 414.03 C 301.199 413.824 301.305 413.547 301.274 413.198 C 300.61 405.648 299.947 398.098 299.283 390.548 C 299.227 389.91 298.634 389.416 297.989 389.473 Z " fill="rgb(131,145,149)"/></g><path d=" M 277.782 318.915 L 281.902 317.141 L 284.63 321.141 L 303.632 304.87 L 306.031 305.13 L 284.138 326.365 L 277.782 318.915 Z " fill="rgb(0,185,185)"/><path d=" M 279.792 359.914 L 283.913 358.139 L 286.64 362.139 L 305.643 345.868 L 308.042 346.129 L 286.149 367.364 L 279.792 359.914 Z " fill="rgb(0,185,185)"/><path d=" M 283.992 400.171 L 288.112 398.396 L 290.84 402.396 L 309.842 386.125 L 312.241 386.386 L 290.349 407.621 L 283.992 400.171 Z " fill="rgb(0,185,185)"/><g opacity="0.320007"><path d=" M 395.075 401.634 L 314.471 408.71 L 313.475 397.386 L 394.08 390.309 L 395.075 401.634 Z " fill="rgb(131,145,149)"/></g><g opacity="0.320007"><path d=" M 391.177 357.278 L 310.572 364.355 L 309.576 353.03 L 390.181 345.954 L 391.177 357.278 Z " fill="rgb(131,145,149)"/></g><g opacity="0.320007"><path d=" M 387.631 312.753 L 307.027 319.83 L 306.031 308.506 L 386.636 301.429 L 387.631 312.753 Z " fill="rgb(131,145,149)"/></g><g opacity="0.470001"><path d=" M 288.192 288.993 L 267.724 290.79 C 267.129 284.027 266.535 277.263 265.94 270.5 C 272.763 269.901 279.586 269.301 286.409 268.703 C 287.004 275.466 287.598 282.23 288.192 288.993 Z  M 287.391 266.239 C 279.775 266.908 272.159 267.576 264.543 268.245 C 263.9 268.302 263.4 268.891 263.456 269.529 C 264.12 277.079 264.784 284.629 265.448 292.179 C 265.504 292.816 266.096 293.31 266.741 293.254 C 274.357 292.585 281.974 291.917 289.59 291.248 C 289.939 291.217 290.193 291.068 290.367 290.861 C 290.38 290.849 290.391 290.834 290.404 290.821 C 290.41 290.812 290.418 290.804 290.424 290.795 C 290.601 290.59 290.707 290.313 290.676 289.964 C 290.012 282.414 289.349 274.864 288.685 267.314 C 288.629 266.677 288.036 266.183 287.391 266.239 Z " fill="rgb(131,145,149)"/></g><path d=" M 274.192 279.607 L 278.313 277.832 L 281.04 281.832 L 300.043 265.561 L 302.441 265.821 L 280.549 287.056 L 274.192 279.607 Z " fill="rgb(0,185,185)"/><g opacity="0.320007"><path d=" M 384.041 273.445 L 303.437 280.522 L 302.441 269.197 L 383.046 262.12 L 384.041 273.445 Z " fill="rgb(131,145,149)"/></g><path d=" M 155.192 290.143 L 148.638 342.388 L 233.437 399.194 L 228.788 414.349 L 120.506 372.931 L 110.861 337.608 L 135.513 260.867 L 155.192 290.143 Z " fill="rgb(255,255,255)"/><path d=" M 229.784 411.105 L 236.489 416.884 L 253.367 417.97 L 253.207 408.617 L 241.142 404.251 L 239.903 399.367 L 233.437 399.194 L 229.784 411.105 Z " fill="rgb(189,103,82)"/><path d=" M 725.588 673.462 L 726.422 681.674 L 710.834 691.555 L 701.788 684.178 L 709.165 675.132 L 724.753 665.251 L 725.588 673.462 Z " fill="rgb(0,32,56)"/><path d=" M 726.192 422.965 L 728.726 447.903 L 706.46 559.35 L 726.179 670.729 L 710.221 675.642 L 658.627 543.215 L 655.796 502.731 L 662.785 418.866 L 726.192 422.965 Z " fill="rgb(0,44,81)"/><path d=" M 605.257 431.454 L 604.745 536.81 L 625.509 672.508 L 640.774 672.405 L 649.573 547.008 L 669.621 421.535 L 605.257 431.454 Z " fill="rgb(0,44,81)"/><path d=" M 640.729 678.843 L 624.277 687.207 L 615.968 679.009 L 624.167 670.7 L 640.673 670.589 L 640.729 678.843 Z " fill="rgb(0,32,56)"/><path d=" M 592.393 415.993 C 603.405 381.88 604.579 346.06 607.782 310.525 C 608.731 300.04 609.74 289.324 614.104 279.744 C 619.116 268.743 627.401 262.937 637.053 259.765 C 649.338 255.728 663.836 255.959 676.61 255.181 C 688.73 254.8 699.453 300.362 711.815 322.448 C 719.392 335.983 727.199 347.954 732.309 362.719 C 737.214 376.889 741.924 391.308 744.778 406.052 C 749.086 428.311 760.105 443.854 749.581 451.427 C 748.617 451.746 747.688 452.062 746.806 452.378 C 729.543 458.561 711.682 463.139 693.493 465.54 C 677.358 467.669 660.971 468.057 644.769 466.46 C 622.591 464.274 601.104 461.141 581.553 449.575 C 585.166 438.381 588.78 427.186 592.393 415.993 Z " fill="rgb(255,255,255)"/><path d=" M 516.351 346.984 L 592.351 324.275 L 618.15 272.841 L 632.371 299.147 L 615.968 346.984 L 532.786 363.448 L 516.351 346.984 Z " fill="rgb(255,255,255)"/><path d=" M 433.092 263.579 L 487.123 209.641 L 686.403 409.27 L 632.37 463.207 L 433.092 263.579 Z " fill="rgb(0,185,185)"/><path d=" M 487.124 209.641 L 411.944 188.361 L 433.093 263.579 L 487.124 209.641 Z " fill="rgb(255,255,255)"/><path d=" M 440.151 196.346 L 411.944 188.362 L 419.879 216.583 L 440.151 196.346 Z " fill="rgb(0,83,103)"/><path d=" M 666.455 482.982 L 706.57 442.937 C 710.414 439.101 710.419 432.876 706.583 429.033 L 686.403 409.269 L 632.371 463.207 L 652.551 482.97 C 656.387 486.813 662.612 486.819 666.455 482.982 Z " fill="rgb(166,213,201)"/><path d=" M 632.371 463.207 L 686.403 409.269 L 676.316 399.165 L 621.865 452.683 L 632.371 463.207 Z " fill="rgb(236,236,238)"/><path d=" M 682.54 221.271 C 675.636 200.426 645.216 193.167 638.144 217.394 C 636.019 224.673 634.74 232.396 636.186 239.842 C 637.63 247.287 642.18 254.43 649.123 257.481 C 649.163 257.499 649.202 257.513 649.242 257.531 C 648.971 259.463 648.699 261.395 648.429 263.327 C 648.37 263.742 648.321 264.2 648.555 264.548 C 648.82 264.945 649.348 265.049 649.82 265.119 C 652.127 265.463 654.434 265.808 656.739 266.151 C 657.883 266.322 659.074 266.489 660.175 266.137 C 662.584 265.366 663.586 262.478 663.692 259.95 C 663.717 259.346 663.711 258.734 663.702 258.122 C 677.353 253.446 687.054 234.897 682.54 221.271 Z " fill="rgb(247,193,162)"/><path d=" M 645.479 185.678 C 639.909 184.849 635.166 190.251 630.026 193.087 C 625.75 195.446 620.903 196.072 616.472 198.027 C 612.041 199.983 607.684 204.064 607.591 209.174 C 603.101 206.837 598.237 204.44 593.205 205.409 C 588.172 206.379 583.501 212.386 585.506 217.339 C 587.301 221.773 593.086 222.818 595.011 227.182 C 598.056 234.087 589.825 244.811 595.442 249.39 C 596.792 250.491 598.629 250.757 599.957 251.891 C 601.605 253.299 602.134 255.717 602.868 257.866 C 606.194 267.61 616.015 273.974 625.717 272.672 C 631.749 269.846 636.559 264.008 638.714 257.324 C 641.312 249.267 637.001 246.454 636.274 238.892 C 635.479 230.627 638.107 221.874 643.311 215.455 C 646.698 211.279 651.543 207.678 656.664 207.19 C 658.745 206.991 658.089 208.728 660.431 207.117 C 661.437 206.426 662.808 203.812 663.093 202.558 C 657.491 198.053 652.807 186.768 645.479 185.678 Z " fill="rgb(0,44,81)"/><path d=" M 705.721 196.394 C 708.594 197.194 711.714 197.077 714.451 198.277 C 718.564 200.08 718.314 204.347 719.478 208.055 C 720.767 212.159 722.64 217.669 725.347 220.861 C 727.297 223.162 730.029 224.473 732.405 226.248 C 734.782 228.023 736.966 230.644 736.915 233.843 C 736.867 236.874 734.829 239.597 734.531 242.624 C 734.168 247.138 734.949 249.45 733.557 254.063 C 732.839 256.443 732.035 258.964 730.248 260.588 C 727.894 262.727 724.539 262.686 721.594 262.194 C 718.65 261.701 715.605 260.884 712.7 261.861 C 706.402 263.98 707.577 270.351 705.901 275.69 C 703.35 283.814 693.928 288.557 686.721 285.667 C 680.61 283.217 677.073 276.122 677.349 269.117 C 677.488 265.61 678.883 262.342 678.985 258.832 C 679.082 255.446 677.174 250.758 680.242 248.072 C 680.991 247.417 681.948 247.072 682.619 246.327 C 683.162 245.724 683.464 244.915 683.653 244.108 C 684.306 241.31 683.69 238.259 682.04 236.117 C 680.855 234.577 679.157 233.452 678.43 231.595 C 677.597 229.466 678.256 226.977 678.397 224.625 C 678.738 218.94 675.628 213.364 670.892 211.169 C 667.771 209.723 664.959 208.869 662.231 206.668 C 661.816 206.333 655.609 200.849 655.449 202.034 C 655.728 199.971 656.932 198.166 658.152 196.511 C 660.158 193.79 662.385 191.139 665.21 189.509 C 674.346 184.239 674.787 196.487 682.12 194.876 C 683.889 194.487 685.221 192.866 686.813 191.898 C 689.821 190.07 693.515 190.723 696.59 192.093 C 699.666 193.463 702.484 195.493 705.721 196.394 Z " fill="rgb(0,44,81)"/><path d=" M 513.914 357.681 L 522.918 355.757 L 534.205 364.403 L 525.679 374.351 L 517.149 367.379 L 513.914 357.681 Z " fill="rgb(247,193,162)"/><path d=" M 613.082 386.52 L 607.035 392.986 L 590.371 395.875 L 589.527 386.557 L 601.055 380.924 L 601.763 375.934 L 608.173 375.069 L 613.082 386.52 Z " fill="rgb(247,193,162)"/><path d=" M 597.439 374.724 L 673.439 352.015 L 699.239 300.581 L 713.459 326.887 L 697.056 374.724 L 613.875 391.187 L 597.439 374.724 Z " fill="rgb(255,255,255)"/></g></g></svg>